<svg clip-rule="evenodd" fill-rule="evenodd" stroke-linejoin="round" stroke-miterlimit="2" viewBox="0 0 64 64" xmlns="http://www.w3.org/2000/svg"><path d="m0 0h64v64h-64z" fill="none"/><g fill-rule="nonzero" transform="matrix(.44735904252 0 0 .44735904252 .70025436 1.6017166)"><path d="m91.9 11.7c5.9-5.9 15.4-5.9 21.2 0 5.9 5.9 5.9 15.4 0 21.2l-58.9 58.9c-7.6 7.6-17.6 12.6-28.3 14.1l-8.2 1.2 1.2-8.2c1.5-10.7 6.5-20.6 14.1-28.3z" fill="#fff"/><path d="m82 21.6c13.1 3.8 19.9 13.4 21.2 21.2l9.9-9.9c5.9-5.9 5.9-15.4 0-21.2-5.9-5.9-15.4-5.9-21.2 0z" fill="#8fcceb" stroke="#167bba" stroke-width="2.24"/><path d="m104.7 37.1c-2.9-7.3-9.8-14.9-21.8-18.4-19-5.5-29.7 6.6-34.9 12.4-.6.7-1.3 1.4-1.8 1.9-3.3-1.5-7-2.9-7.2-2.9-1.6-.6-3.3.2-3.8 1.8-.6 1.6.2 3.3 1.8 3.8 0 0 4.7 1.7 7.9 3.3 2.9 1.4 5.1-1.1 7.6-3.9 4.4-5 11.4-12.9 23.4-11.7l-45 45.1c-8.1 8.1-13.4 18.7-15 30l-1 7.3-2.7 2.7c-1.2 1.2-1.3 3.4 0 4.5.6.5 1.3.7 2 .7.8 0 1.5-.3 2.1-.9l2.8-2.8 7.3-1c11.3-1.6 21.9-6.9 30-15l49.1-49.1c.8-.8 1.1-1.9.8-2.9-.5-1.5-1.1-3.6-1.6-4.9zm-52.6 52.6c-7.1 7.1-16.6 11.9-26.6 13.3l-4.3.6.6-4.3c1.4-10 6.2-19.4 13.3-26.6l47.7-47.7c10.3 3.6 15.6 10.9 17.1 16.8z" fill="#fff"/><path d="m48.6 127.4h-4.5c-1.7 0-3-1.3-3-3s1.3-3 3-3h4.5c3 0 5.9-1.4 7.6-3.9l.5-.7c6.2-8.4 8.6-11.4 11.3-11.8 5.5-.7 9.4 4.1 13.1 8.8 3 3.7 6 7.5 8.8 7.2 1.9-.2 3.9-2.1 6-4.2 3.1-2.9 6.5-6.3 11.4-5.8 1.3.1 2.7.6 4.1 1.3 1.5.7 2.1 2.5 1.4 4s-2.5 2.1-4 1.4c-.8-.4-1.5-.6-2.1-.7-2.1-.2-4.3 1.9-6.6 4.1-2.6 2.5-5.6 5.4-9.6 5.8-6.1.7-10.3-4.7-14.1-9.4-2.5-3.1-5.2-6.5-7.4-6.6-1.5 1.1-5.1 6.1-7.6 9.4l-.5.7c-2.7 4.1-7.4 6.4-12.3 6.4z" fill="#fff"/></g><circle cx="56.39574791863" cy="57.25465958749" fill="#fff" r="1.3420767342" stroke-width="1.31576150412"/></svg>